<svg width="38" height="40" viewBox="0 0 38 40" fill="none" xmlns="http://www.w3.org/2000/svg">
<path d="M8.51261 10.5943C10.577 10.5943 12.2504 8.92083 12.2504 6.85649C12.2504 4.79214 10.577 3.11865 8.51261 3.11865C6.44826 3.11865 4.77478 4.79214 4.77478 6.85649C4.77478 8.92083 6.44826 10.5943 8.51261 10.5943Z" fill="white"/>
<path d="M15.7799 13.4268V34.1643H22.2186V23.9091C22.2186 21.2031 22.7277 18.5826 26.0829 18.5826C29.3919 18.5826 29.4329 21.6763 29.4329 24.08V34.166H35.8751V22.7936C35.8751 17.2073 34.6724 12.9143 28.1431 12.9143C25.0084 12.9143 22.9071 14.6346 22.0478 16.2626H21.9607V13.4268H15.7799ZM5.28735 13.4268H11.7363V34.1643H5.28735V13.4268Z" fill="white"/>
</svg>
